<?xml version="1.0" encoding="utf-8"?>
<!-- Generator: Adobe Illustrator 18.0.0, SVG Export Plug-In . SVG Version: 6.00 Build 0)  -->
<!DOCTYPE svg PUBLIC "-//W3C//DTD SVG 1.1//EN" "http://www.w3.org/Graphics/SVG/1.1/DTD/svg11.dtd">
<svg xmlns="http://www.w3.org/2000/svg" xmlns:xlink="http://www.w3.org/1999/xlink" version="1.1" id="レイヤー_1" x="0px" y="0px" viewBox="0 0 300 99" xml:space="preserve">
<g>
	<rect y="35" fill="none" width="300" height="29"/>
	<path d="M5.6,54.8c-0.3,0.2-0.5,0.3-0.6,0.3c-0.2,0-0.3-0.1-0.3-0.4c0-0.1,0.2-0.3,0.5-0.5c3.4-2.6,6.9-6.1,9.3-8.9   c2.1-2.5,3.1-3.9,3.5-4.6c0.3-0.6,0.5-0.9,0.5-1.2c0-0.3-0.4-0.6-1-1c-0.3-0.2-0.5-0.2-0.5-0.4c0-0.2,0.5-0.7,1.2-0.7   c0.7,0,2,0.4,3.1,1.2c0.8,0.5,1.2,1.1,1.2,1.6c0,0.5-0.3,0.8-1,1c-0.3,0.1-0.4,0.2-0.6,0.4c-1.6,1.8-3,3.3-4.1,4.4   c1.1,0.8,1.9,1.4,1.9,2c0,0.2,0,0.4-0.1,0.6c-0.1,0.1-0.1,0.6-0.1,1c0,1.3,0,2.5,0,4.2c0,2.2,0.1,4.4,0.1,6.6   c0,0.9-0.6,1.3-1.1,1.3c-0.5,0-1-0.2-1.3-0.6c-0.4-0.5-0.6-1.2-0.6-1.9c0-0.3,0.1-0.5,0.1-0.7c0.2-0.7,0.3-1.9,0.3-2.7   c0-2.1,0-4.9,0-6.7c0-1.3-0.1-1.5-0.2-1.9C12.4,50.5,8.9,53,5.6,54.8z"/>
	<path d="M33.6,42.2c0-0.1,0.1-0.2,0.3-0.2c0.1,0,0.3,0,0.6,0c1.1,0.1,2.4,0.5,3.7,1.2c1.3,0.7,2,1.9,2,2.9c0,1-0.7,1.6-1.6,1.6   c-0.6,0-1.1-0.3-1.4-1.1c-0.2-0.6-0.6-1.2-1.2-2.1c-0.7-1-1.4-1.6-2.1-2C33.7,42.4,33.6,42.4,33.6,42.2z M37.9,55.4   c2.7-1.6,5.5-3.5,8-5.7c2.7-2.4,4.8-4.7,6.8-7.1c0.1-0.2,0.3-0.3,0.4-0.3c0.2,0,0.3,0.1,0.3,0.3s-0.1,0.3-0.2,0.5   c-1.7,3-3.4,5.4-6,8.1c-2.5,2.6-4.9,4.7-7.7,6.8c-0.3,0.2-0.6,0.5-0.8,0.7c-0.3,0.3-0.6,0.7-1.2,0.7c-0.6,0-1-0.3-1.8-1.1   c-1.2-1.3-1.6-2.1-1.6-2.7c0-0.6,0.2-1.1,0.5-1.1c0.1,0,0.2,0.1,0.5,0.4c0.6,0.7,1,1.1,1.3,1.1C36.7,56,37.3,55.8,37.9,55.4z"/>
	<path d="M69.3,45.9c3-0.2,4-0.3,5.5-0.5c0.4-0.1,0.9-0.2,1.1-0.3c0.2-0.1,0.8-0.3,1.1-0.3c0.8,0,1.9,0.3,2.8,0.8   c0.5,0.3,0.6,0.7,0.6,1.1c0,0.5-0.3,0.8-0.7,0.9c-0.5,0-0.8,0-1.8-0.1c-1.2-0.1-2.3-0.2-3.6-0.2c-1,0-2.6,0-3.9,0.1   c0.9,0.6,1.3,1.2,1.3,1.6c0,0.1-0.1,0.3-0.1,0.5c-0.2,0.3-0.3,0.6-0.6,1.3c-0.6,1.7-1.5,3.5-3.2,5.7c-1.7,2.1-3.6,3.7-5.9,4.9   c-0.2,0.1-0.3,0.2-0.5,0.2c-0.2,0-0.3-0.1-0.3-0.3c0-0.1,0.2-0.3,0.7-0.8c1.3-1.2,3-3.1,4.3-5.3c0.9-1.5,1.7-3.4,2.1-5.1   c0.2-0.8,0.3-1.3,0.3-1.5c0-0.3-0.1-0.7-0.3-1c-2.1,0.2-4.2,0.5-5.5,0.7c-0.8,0.2-1.1,0.3-1.4,0.5C61,48.9,60.8,49,60.4,49   c-0.5,0-1-0.3-1.9-1.3c-0.6-0.6-0.8-1.2-0.8-1.6c0-0.4,0.1-0.7,0.3-0.7c0.1,0,0.3,0.2,0.4,0.3c0.9,0.7,1.5,0.9,2,0.9   c0.7,0,1.7-0.1,2.6-0.2C65,46.2,66.7,46.1,69.3,45.9z M71.1,39.7c0.5-0.1,0.7-0.2,0.9-0.3c0.4-0.2,0.9-0.3,1.1-0.3   c0.7,0,1.7,0.1,2.5,0.6c0.3,0.2,0.5,0.5,0.5,0.9c0,0.6-0.4,1-1.1,1c-0.6,0-1.4,0-2.3,0.1c-1.8,0.1-4.8,0.4-6.4,0.5   c-0.6,0.1-1.1,0.1-1.5,0.1c-0.8,0-1.4,0-2.3-1c-0.6-0.6-0.7-1.1-0.7-1.5c0-0.3,0.1-0.4,0.2-0.4c0.1,0,0.2,0.1,0.4,0.3   c0.7,0.5,1.1,0.9,2.3,0.9c0.6,0,1.6-0.1,3.1-0.2C69.1,40.1,70.2,39.9,71.1,39.7z M79.3,38.8c0.8,0.6,1.1,1.1,1.1,1.7   c0,0.5-0.3,1-1,1c-0.3,0-0.7-0.1-1-0.7c-0.6-1.1-1.1-1.8-1.8-2.6c-0.1-0.1-0.3-0.3-0.3-0.4c0-0.2,0.1-0.2,0.3-0.2   c0.3,0,0.6,0.1,0.7,0.1C78.2,38.1,78.7,38.4,79.3,38.8z M82,36.8c0.6,0.3,1,0.8,1,1.5s-0.4,1.1-0.9,1.1c-0.4,0-0.8-0.1-1.1-0.6   c-0.6-1-1.2-1.7-2-2.3c-0.1-0.1-0.3-0.2-0.3-0.3c0-0.1,0.1-0.2,0.2-0.2c0.2,0,0.5,0,0.8,0.1C80.5,36.1,81.3,36.4,82,36.8z"/>
	<path d="M87.7,56c-0.3,0.1-0.4,0.2-0.5,0.2c-0.2,0-0.3-0.1-0.3-0.3c0-0.1,0.1-0.3,0.4-0.5c2.7-2,5.3-4.8,7.1-6.9   c1.7-1.9,2.3-3,2.6-3.6c0.3-0.5,0.3-0.7,0.3-1c0-0.2-0.3-0.5-0.7-0.8c-0.2-0.1-0.5-0.2-0.5-0.4c0-0.3,0.4-0.5,1-0.5   c0.5,0,1.6,0.3,2.6,0.9c0.6,0.4,1.1,0.8,1.1,1.2c0,0.3-0.2,0.6-0.8,0.8c-0.2,0.1-0.3,0.1-0.5,0.3c-1.2,1.4-2.4,2.6-3.2,3.5   c0.9,0.6,1.4,1.1,1.4,1.5c0,0.2,0,0.3-0.1,0.4c0,0.1-0.1,0.7-0.1,1.8c0,1,0,2,0,3c0,2.1,0,3.3,0,4c0,1-0.5,1.4-1,1.4   c-0.4,0-0.8-0.2-1-0.6c-0.3-0.4-0.5-1.1-0.5-1.6c0-0.2,0.1-0.4,0.1-0.5c0.1-0.3,0.1-0.7,0.2-1.5c0-0.7,0.1-1.2,0.1-2.3   c0-0.8,0-2.4,0-3.1c0-1-0.1-1.2-0.2-1.5C92.9,52.7,90.3,54.6,87.7,56z"/>
	<path d="M128.4,43.6c0.2-0.1,0.4-0.3,0.8-0.3c0.6,0,1.1,0.3,1.9,1c0.9,0.9,1,1.3,1,1.6c0,0.3-0.3,0.6-0.6,0.8   c-0.3,0.3-0.4,0.7-0.6,1.1c-0.4,1.7-1.1,4.4-1.6,6.4c1,0.2,1.3,0.9,1.3,1.3c0,0.6-0.4,0.9-0.8,0.9c-0.5,0-1-0.1-1.8-0.1   c-1.1,0-2.4,0.1-3.9,0.2c-1.9,0.1-3.9,0.3-5.7,0.6c-0.8,0.1-1.1,0.3-1.3,0.4c-0.3,0.2-0.6,0.3-1,0.3c-0.5,0-1-0.3-1.9-1.4   c-0.6-0.8-0.8-1.2-0.8-1.7c0-0.5,0.1-0.8,0.3-0.8c0.1,0,0.2,0.1,0.4,0.3c0.8,0.7,1.2,1,2.3,1c0.2,0,1,0,2.7-0.2   c2.6-0.2,5-0.5,7.6-0.8c0.5-2.4,1-5.1,1.3-7.5c0-0.3,0.1-0.7,0.1-1c-0.4,0-0.9,0-1.6,0c-2.6,0.2-5.2,0.4-8.2,0.8   c-0.8,0.1-1.2,0.2-1.4,0.4c-0.3,0.2-0.6,0.3-0.9,0.3c-0.6,0-1.2-0.4-2-1.5c-0.7-0.9-0.8-1.3-0.8-1.9c0-0.2,0.2-0.6,0.3-0.6   c0.2,0,0.3,0.2,0.6,0.4c0.7,0.6,1.2,0.9,2.1,0.9c0.6,0,1.4-0.1,2.6-0.1c1.5-0.1,5.1-0.4,8.3-0.6C127.9,43.9,128.1,43.8,128.4,43.6z    M132.1,40.5c0.8,0.6,1.1,1.1,1.1,1.7c0,0.5-0.3,1-1,1c-0.3,0-0.7-0.1-1-0.7c-0.6-1.1-1.1-1.8-1.8-2.6c-0.1-0.1-0.3-0.3-0.3-0.4   c0-0.2,0.1-0.2,0.3-0.2c0.3,0,0.6,0.1,0.7,0.1C130.9,39.8,131.5,40.1,132.1,40.5z M134.7,38.5c0.6,0.3,1,0.8,1,1.5   s-0.4,1.1-0.9,1.1c-0.4,0-0.8-0.1-1.1-0.6c-0.6-1-1.2-1.7-2-2.3c-0.1-0.1-0.3-0.2-0.3-0.3c0-0.1,0.1-0.2,0.2-0.2   c0.2,0,0.5,0,0.8,0.1C133.3,37.8,134,38.1,134.7,38.5z"/>
	<path d="M164.8,53c0.4,1.5,0.7,2.5,1,3.5c0.3-1,0.5-2,0.9-3.6l2.2-8.8c0.4-1.7,0.6-2.9,0.3-3.5c-0.3-0.6-1-0.8-2.1-1   c-0.2,0-0.3,0-0.3-0.4c0-0.3,0.1-0.4,0.3-0.4c1,0.1,2.5,0.1,3.7,0.1c1.1,0,2.1-0.1,3-0.1c0.2,0,0.3,0.1,0.3,0.4   c0,0.4-0.1,0.4-0.3,0.4c-0.9,0.1-1.5,0.4-2,1c-0.5,0.6-0.9,1.8-1.4,3.5l-2.9,10.4c-0.8,2.8-1,3.6-1.4,5.1c-1.9,0.8-2.1,0.9-2.2,0.9   c-0.1,0-0.2-0.1-0.2-0.2c-0.5-1.7-0.9-3.3-1.6-5.7l-2.2-7.5c-0.3-1.1-0.5-1.9-0.7-2.7c-0.2,0.8-0.3,1.6-0.6,2.6l-2.2,7.5   c-0.8,2.9-1,3.6-1.4,5.1c-1.9,0.8-2.1,0.9-2.2,0.9c-0.1,0-0.2-0.1-0.2-0.2c-0.5-1.8-0.9-3.4-1.5-5.7L148,44c-0.5-1.8-0.9-3-1.4-3.6   c-0.4-0.6-0.7-0.8-1.9-0.9c-0.2,0-0.3,0-0.3-0.4c0-0.4,0.1-0.4,0.3-0.4c1.3,0.1,2.6,0.1,3.9,0.1c1.2,0,3.1-0.1,4.4-0.1   c0.2,0,0.3,0.1,0.3,0.4c0,0.4-0.1,0.4-0.3,0.4c-1,0.1-1.7,0.1-1.9,0.8c-0.3,0.6,0.1,1.9,0.6,3.7L154,53c0.4,1.6,0.6,2.5,0.8,3.4   c0.3-0.9,0.4-1.9,0.8-3.5l1.9-6.7c0.5-1.8,0.6-2.6,0.9-3.6c-0.3-0.8-0.5-1.7-1-2.3c-0.5-0.6-0.8-0.7-1.9-0.8   c-0.2,0-0.3-0.1-0.3-0.4c0-0.3,0-0.4,0.3-0.4c1.3,0.1,2.7,0.1,3.9,0.1c1.3,0,2.5-0.1,3.8-0.1c0.2,0,0.3,0.1,0.3,0.4   c0,0.3-0.1,0.4-0.3,0.4c-1.2,0.1-1.5,0.1-1.8,0.8c-0.3,0.6,0,1.5,0.6,3.7L164.8,53z"/>
	<path d="M178.1,53.2c0,3.8,2.3,5.7,4.1,5.7c1.9,0,3-0.6,4-2.1c0.1-0.1,0.2-0.1,0.3-0.1s0.2,0.1,0.3,0.1c0.1,0.1,0.2,0.2,0.2,0.3   c0,0.1-0.1,0.2-0.1,0.3c-1.3,2.1-3,2.9-5.4,2.9c-4,0-6.7-3-6.7-7c0-3.9,2.8-7.2,6.7-7.2c3.8,0,5.6,3.4,5.7,5.4c0,0.2,0,0.3-0.1,0.5   c-0.1,0.2-0.3,0.1-0.4,0.1c-2.9-0.1-5.9-0.1-8.4-0.1C178.1,52.5,178.1,52.7,178.1,53.2z M183.7,51.1c0.2,0,0.3-0.2,0.3-0.5   c-0.1-1.6-0.8-3.5-2.5-3.5c-1.6,0-2.8,1.7-3.2,4.1C180.4,51.2,181.7,51.2,183.7,51.1z"/>
	<path d="M193.2,48.5c1-1.6,2.6-2.3,3.9-2.3c3.7,0,6.3,2.9,6.3,7c0,4.1-2.5,7.2-6.6,7.2c-2.1,0-2.9-0.9-3.8-1.6   c-0.2-0.1-0.5-0.1-0.7,0l-1.3,1.1c-0.2,0.1-0.3,0.2-0.6,0.2c-0.3,0-0.4-0.1-0.3-0.3c0.1-2.1,0.2-3.7,0.2-6.4V42.6   c0-1.1,0-1.9-0.1-2.5c-0.1-0.5-0.5-0.6-1-0.6l-0.7,0.1c-0.3,0-0.3,0-0.4-0.3c0-0.3,0-0.3,0.3-0.4c1.2-0.2,3.3-0.8,4.8-1.2   c0.2,0,0.3,0.1,0.3,0.2c-0.1,2-0.1,4.3-0.1,7.1V48.5z M193.2,55.1c0,1,0,1.7,0.4,2.6c0.6,1,1.4,1.8,2.6,1.8c2.1,0,3.6-2.5,3.6-6.2   c0-3.6-1.6-5.6-3.6-5.6c-1.1,0-1.9,0.6-2.6,1.5c-0.5,0.8-0.5,1.3-0.5,2.3V55.1z"/>
	<path d="M219.2,39.5c-0.3,2.4-1,4.8-2,7.1c0.1,0.1,0.2,0.2,0.3,0.3h2.4c1-1,1.2-1.2,1.4-1.2c0.3,0,0.5,0.2,1.4,1   c0.4,0.3,0.6,0.6,0.6,0.8c0,0.3-0.1,0.4-0.7,0.8v1.7c0,4.5,0.1,7.7,0.1,8.7c0,0.8-0.5,1.2-1.5,1.2c-0.8,0-1.1-0.3-1.1-1V58h-2.8   v2.4c0,0.8-0.4,1.2-1.4,1.2c-0.9,0-1.2-0.2-1.2-1c0-1.8,0.1-2.6,0.1-5.7c0-1.7,0-3.3,0.1-4.6c-0.8,0.9-1.6,1.8-2.5,2.5   c-0.1,0.1-0.4-0.2-0.3-0.3c2.4-3.5,3.8-7.9,4.2-13h-1.8c-0.4,0-0.8,0.1-1.4,0.2l-0.3-1.1c0.7,0.2,1.2,0.2,1.8,0.2h5   c1-1.5,1.4-1.7,1.6-1.7c0.3,0,0.6,0.2,1.6,1.2c0.5,0.4,0.7,0.7,0.7,0.9s-0.1,0.3-0.4,0.3H219.2z M220.1,47.6h-2.8v9.8h2.8V47.6z    M235.5,47.9h0.6c1.1-1.6,1.5-1.8,1.7-1.8c0.3,0,0.5,0.2,1.6,1.3c0.4,0.4,0.7,0.7,0.7,0.9c0,0.2-0.1,0.3-0.4,0.3h-4.1   c0,5.2,0.1,11,0.1,13.1c0,0.9-0.5,1.2-1.7,1.2c-0.9,0-1.2-0.3-1.2-1.1c0-0.6,0.1-2.6,0.1-6.5v-6.7h-3.5c-0.1,2.9-0.4,4.7-0.8,6.2   c-1,3.8-2.8,6-6.7,8.2c-0.1,0.1-0.3-0.2-0.2-0.3c3.6-3.6,4.7-6.1,5-14.2h-0.6c-0.8,0-1.5,0.1-2.5,0.2l-0.3-1.1   c1.1,0.2,1.9,0.2,2.8,0.2h0.7c0.1-1.8,0.1-3.9,0.1-6.4c0-0.4,0-1.5,0-2.5h-0.1c-0.7,0-1.5,0.1-2.4,0.2l-0.3-1.1   c1.1,0.2,1.9,0.2,2.8,0.2h8.6c1.2-1.5,1.6-1.7,1.8-1.7c0.3,0,0.6,0.2,1.7,1.2c0.5,0.4,0.7,0.7,0.7,0.9c0,0.2-0.1,0.3-0.4,0.3h-3.7   V47.9z M229.4,39c0,1.2,0,2.2,0,2.7c0,2.5,0,4.5-0.1,6.2h3.5V39H229.4z"/>
	<path d="M253.9,52.5c-0.3,2.1-1,3.9-2.1,5.3c-1.9,2.5-5,4-9.5,5c-0.1,0-0.3-0.3-0.1-0.4c3.7-1.5,6.1-3.3,7.6-5.7   c0.7-1.2,1.2-2.5,1.5-4.1l-5.1,0.1c-0.7,0-1.1,0.1-1.6,0.2l-0.3-1.2c0.6,0.2,1.1,0.2,2.1,0.2l5-0.1c0.1-0.8,0.1-1.7,0.1-2.8   c0-0.5,0-0.8-0.1-1.4c3.7,0.4,3.9,0.4,3.9,1c0,0.3-0.2,0.5-1,0.8c0,0.9-0.1,1.7-0.2,2.4l3.9,0c0.9-1,1.2-1.3,1.5-1.3s0.6,0.2,1.5,1   c0.5,0.4,0.7,0.8,0.7,1c0,0.3-0.1,0.4-0.8,0.8c-0.1,1.8-0.1,4.5-0.1,5.5c0,0.9,0.1,1,2.3,1c1.3,0,2.2-0.2,2.5-0.6   c0.3-0.4,1-2.1,1.3-3.3c0-0.1,0.3-0.1,0.3,0c0,0.9-0.1,2.2-0.1,2.8c0,0.4,0.1,0.5,0.4,0.7c0.6,0.3,0.7,0.4,0.7,0.8   c0,0.6-0.5,1-1.4,1.4c-1,0.3-2.4,0.5-4.3,0.5c-3.7,0-4.4-0.5-4.4-2.8c0-0.5,0.1-4.6,0.2-6.9L253.9,52.5z M253.4,40.2v-1.9   c0-0.3-0.1-1-0.2-1.8c3.6,0.3,3.9,0.6,3.9,0.9c0,0.2-0.3,0.5-1,0.8v2h7.3c1.2-1.5,1.5-1.6,1.7-1.6c0.3,0,0.5,0.2,2.1,1.5   c0.7,0.6,0.9,0.8,0.9,1.1c0,0.4-0.3,0.6-1.4,0.6c-0.4,0-0.7,0.1-0.9,0.3c-0.6,0.5-0.8,0.6-2.7,1.6c-0.1,0.1-0.3,0-0.3-0.2   c0.3-0.8,0.7-1.9,0.8-2.6h-4.8v4c0,0.8,0.4,1,2.5,1c1.5,0,2.5-0.1,3-0.3c0.5-0.2,0.7-0.6,1.5-2.5c0.1-0.1,0.3-0.1,0.3,0v1.5   c0,0.4,0,0.5,0.8,0.7c0.4,0.1,0.7,0.5,0.7,0.9c0,0.7-0.6,1.2-1.9,1.5c-1,0.2-2.3,0.3-4,0.3c-4.4,0-5.3-0.4-5.3-2.5v-4.6h-2.8   c-0.6,5.2-3.4,7.5-10,8.3c-0.1,0-0.3-0.3-0.1-0.4c5.1-1.6,6.9-3.5,7.4-7.9h-4.4c0.1,2.1-0.7,3.9-2.3,3.9c-0.9,0-1.5-0.6-1.5-1.5   c0-0.7,0.2-1,0.9-1.4c1.5-0.7,2-1.5,2.1-3c0-0.1,0.3-0.2,0.3,0c0.1,0.5,0.3,0.9,0.3,1.4H253.4z"/>
	<path d="M275,40.4c0.1,2.2-0.8,3.8-2.3,3.8c-0.9,0-1.5-0.6-1.5-1.5c0-0.7,0.2-1,0.9-1.4c1.5-0.8,1.9-1.4,2.1-3.2   c0-0.1,0.3-0.2,0.3,0c0.2,0.6,0.3,1.2,0.4,1.7h7.6v-1.8c0-0.5,0-1.1-0.1-1.7c3.4,0.3,3.7,0.6,3.7,1c0,0.3-0.3,0.5-0.9,0.7v1.9h7.9   c1.1-1.4,1.3-1.6,1.6-1.6c0.3,0,0.5,0.2,2,1.5c0.7,0.6,0.8,0.8,0.8,1.1c0,0.4-0.3,0.5-1.2,0.5c-0.5,0-0.6,0.1-1.1,0.4   c-0.9,0.6-1.3,0.9-2.2,1.3c-0.1,0.1-0.3-0.1-0.2-0.3c0.4-0.9,0.6-1.6,0.8-2.3H275z M285.3,61.1h7c1.5-1.8,1.8-2,2-2   c0.3,0,0.6,0.2,2.1,1.4c0.7,0.6,0.9,0.8,0.9,1c0,0.2-0.1,0.3-0.4,0.3h-23.2c-0.6,0-1.2,0.1-1.9,0.2l-0.3-1.1c1,0.2,1.7,0.2,2.5,0.2   h8.6v-5.3h-6.1c-0.6,0-1.3,0.1-2.1,0.2l-0.3-1.1c1.1,0.2,1.9,0.2,2.8,0.2h5.8v-1.7c-0.1-1.2-0.1-1.6-0.2-2.1   c3.5,0.3,3.7,0.6,3.7,0.9c0,0.3-0.2,0.5-0.9,0.8v2.1h4.7c1.3-1.5,1.7-1.7,1.9-1.7c0.3,0,0.6,0.2,1.9,1.2c0.6,0.4,0.8,0.7,0.8,0.9   s-0.1,0.3-0.4,0.3h-8.8V61.1z M283.8,44.3c-1.1,1.7-2.3,3.2-3.7,4.6c3.2-0.1,6.4-0.1,9.6-0.4c-0.7-1.1-1.6-1.8-2.9-2.6   c-0.1-0.1-0.1-0.3,0.1-0.3c4.6,1,6.9,2.4,6.9,4.3c0,1-0.6,1.8-1.5,1.8c-0.7,0-1.1-0.4-1.9-1.9c-0.1-0.2-0.2-0.3-0.3-0.5   c-4,0.9-7.9,1.4-14.5,2.1c-0.2,0.7-0.3,0.9-0.6,0.9c-0.4,0-0.5-0.3-1.2-3.5c1.6,0.2,2.5,0.2,4.1,0.2h1.2c0.5-1.5,0.9-3.1,1.3-4.6   h-3c-0.6,0-1.2,0.1-2.1,0.2l-0.3-1.1c1.1,0.2,1.9,0.2,2.8,0.2h11.6c1.3-1.4,1.6-1.7,1.8-1.7c0.3,0,0.6,0.2,1.9,1.2   c0.6,0.4,0.8,0.7,0.8,0.9c0,0.2-0.1,0.3-0.4,0.3H283.8z"/>
</g>
<g>
</g>
<g>
</g>
<g>
</g>
<g>
</g>
<g>
</g>
<g>
</g>
<g>
</g>
<g>
</g>
<g>
</g>
<g>
</g>
<g>
</g>
<g>
</g>
<g>
</g>
<g>
</g>
<g>
</g>
</svg>
